<svg id="visual" viewBox="0 0 960 540" width="960" height="540" xmlns="http://www.w3.org/2000/svg" xmlns:xlink="http://www.w3.org/1999/xlink" version="1.1"><path d="M0 185L10 180.5C20 176 40 167 60 158C80 149 100 140 120 145.3C140 150.7 160 170.3 180 157.7C200 145 220 100 240 102.7C260 105.3 280 155.7 300 166.5C320 177.3 340 148.7 360 131.7C380 114.7 400 109.3 420 121.8C440 134.3 460 164.7 480 160.2C500 155.7 520 116.3 540 96.7C560 77 580 77 600 74.2C620 71.3 640 65.7 660 63.8C680 62 700 64 720 63.2C740 62.3 760 58.7 780 67.7C800 76.7 820 98.3 840 119C860 139.7 880 159.3 900 166.5C920 173.7 940 168.3 950 165.7L960 163L960 0L950 0C940 0 920 0 900 0C880 0 860 0 840 0C820 0 800 0 780 0C760 0 740 0 720 0C700 0 680 0 660 0C640 0 620 0 600 0C580 0 560 0 540 0C520 0 500 0 480 0C460 0 440 0 420 0C400 0 380 0 360 0C340 0 320 0 300 0C280 0 260 0 240 0C220 0 200 0 180 0C160 0 140 0 120 0C100 0 80 0 60 0C40 0 20 0 10 0L0 0Z" fill="#c02440"></path><path d="M0 239L10 239C20 239 40 239 60 237.2C80 235.3 100 231.7 120 243.3C140 255 160 282 180 279.3C200 276.7 220 244.3 240 242.5C260 240.7 280 269.3 300 267.5C320 265.7 340 233.3 360 216.2C380 199 400 197 420 207.8C440 218.7 460 242.3 480 256.8C500 271.3 520 276.7 540 273.8C560 271 580 260 600 249.2C620 238.3 640 227.7 660 225C680 222.3 700 227.7 720 232.2C740 236.7 760 240.3 780 251.2C800 262 820 280 840 280C860 280 880 262 900 248.5C920 235 940 226 950 221.5L960 217L960 161L950 163.7C940 166.3 920 171.7 900 164.5C880 157.3 860 137.7 840 117C820 96.3 800 74.7 780 65.7C760 56.7 740 60.3 720 61.2C700 62 680 60 660 61.8C640 63.7 620 69.3 600 72.2C580 75 560 75 540 94.7C520 114.3 500 153.7 480 158.2C460 162.7 440 132.3 420 119.8C400 107.3 380 112.7 360 129.7C340 146.7 320 175.3 300 164.5C280 153.7 260 103.3 240 100.7C220 98 200 143 180 155.7C160 168.3 140 148.7 120 143.3C100 138 80 147 60 156C40 165 20 174 10 178.5L0 183Z" fill="#ed3254"></path><path d="M0 309L10 307.2C20 305.3 40 301.7 60 299C80 296.3 100 294.7 120 308.2C140 321.7 160 350.3 180 347.5C200 344.7 220 310.3 240 307.7C260 305 280 334 300 333.2C320 332.3 340 301.7 360 282.7C380 263.7 400 256.3 420 262.7C440 269 460 289 480 297.2C500 305.3 520 301.7 540 300.7C560 299.7 580 301.3 600 297.7C620 294 640 285 660 281.5C680 278 700 280 720 277.3C740 274.7 760 267.3 780 277.2C800 287 820 314 840 316.7C860 319.3 880 297.7 900 286.8C920 276 940 276 950 276L960 276L960 215L950 219.5C940 224 920 233 900 246.5C880 260 860 278 840 278C820 278 800 260 780 249.2C760 238.3 740 234.7 720 230.2C700 225.7 680 220.3 660 223C640 225.7 620 236.3 600 247.2C580 258 560 269 540 271.8C520 274.7 500 269.3 480 254.8C460 240.3 440 216.7 420 205.8C400 195 380 197 360 214.2C340 231.3 320 263.7 300 265.5C280 267.3 260 238.7 240 240.5C220 242.3 200 274.7 180 277.3C160 280 140 253 120 241.3C100 229.7 80 233.3 60 235.2C40 237 20 237 10 237L0 237Z" fill="#ff5c75"></path><path d="M0 352L10 352.8C20 353.7 40 355.3 60 348.2C80 341 100 325 120 332.3C140 339.7 160 370.3 180 373C200 375.7 220 350.3 240 352C260 353.7 280 382.3 300 380.5C320 378.7 340 346.3 360 328.3C380 310.3 400 306.7 420 308.5C440 310.3 460 317.7 480 326.7C500 335.7 520 346.3 540 350C560 353.7 580 350.3 600 343.2C620 336 640 325 660 317.7C680 310.3 700 306.7 720 303.2C740 299.7 760 296.3 780 305.3C800 314.3 820 335.7 840 339.2C860 342.7 880 328.3 900 324.8C920 321.3 940 328.7 950 332.3L960 336L960 274L950 274C940 274 920 274 900 284.8C880 295.7 860 317.3 840 314.7C820 312 800 285 780 275.2C760 265.3 740 272.7 720 275.3C700 278 680 276 660 279.5C640 283 620 292 600 295.7C580 299.3 560 297.7 540 298.7C520 299.7 500 303.3 480 295.2C460 287 440 267 420 260.7C400 254.3 380 261.7 360 280.7C340 299.7 320 330.3 300 331.2C280 332 260 303 240 305.7C220 308.3 200 342.7 180 345.5C160 348.3 140 319.7 120 306.2C100 292.7 80 294.3 60 297C40 299.7 20 303.3 10 305.2L0 307Z" fill="#ff8194"></path><path d="M0 374L10 378.5C20 383 40 392 60 388.3C80 384.7 100 368.3 120 372.8C140 377.3 160 402.7 180 407.2C200 411.7 220 395.3 240 396.2C260 397 280 415 300 406C320 397 340 361 360 341.2C380 321.3 400 317.7 420 323C440 328.3 460 342.7 480 352.7C500 362.7 520 368.3 540 372C560 375.7 580 377.3 600 371.8C620 366.3 640 353.7 660 344.7C680 335.7 700 330.3 720 327.7C740 325 760 325 780 334.8C800 344.7 820 364.3 840 368.8C860 373.3 880 362.7 900 357.3C920 352 940 352 950 352L960 352L960 334L950 330.3C940 326.7 920 319.3 900 322.8C880 326.3 860 340.7 840 337.2C820 333.7 800 312.3 780 303.3C760 294.3 740 297.7 720 301.2C700 304.7 680 308.3 660 315.7C640 323 620 334 600 341.2C580 348.3 560 351.7 540 348C520 344.3 500 333.7 480 324.7C460 315.7 440 308.3 420 306.5C400 304.7 380 308.3 360 326.3C340 344.3 320 376.7 300 378.5C280 380.3 260 351.7 240 350C220 348.3 200 373.7 180 371C160 368.3 140 337.7 120 330.3C100 323 80 339 60 346.2C40 353.3 20 351.7 10 350.8L0 350Z" fill="#ff8194"></path><path d="M0 395L10 402.2C20 409.3 40 423.7 60 424.7C80 425.7 100 413.3 120 419.7C140 426 160 451 180 454.5C200 458 220 440 240 436.5C260 433 280 444 300 443.2C320 442.3 340 429.7 360 414.3C380 399 400 381 420 384.5C440 388 460 413 480 427.3C500 441.7 520 445.3 540 446.3C560 447.3 580 445.7 600 437.7C620 429.7 640 415.3 660 411.7C680 408 700 415 720 413.2C740 411.3 760 400.7 780 408.8C800 417 820 444 840 452C860 460 880 449 900 439C920 429 940 420 950 415.5L960 411L960 350L950 350C940 350 920 350 900 355.3C880 360.7 860 371.3 840 366.8C820 362.3 800 342.7 780 332.8C760 323 740 323 720 325.7C700 328.3 680 333.7 660 342.7C640 351.7 620 364.3 600 369.8C580 375.3 560 373.7 540 370C520 366.3 500 360.7 480 350.7C460 340.7 440 326.3 420 321C400 315.7 380 319.3 360 339.2C340 359 320 395 300 404C280 413 260 395 240 394.2C220 393.3 200 409.7 180 405.2C160 400.7 140 375.3 120 370.8C100 366.3 80 382.7 60 386.3C40 390 20 381 10 376.5L0 372Z" fill="#ff5c75"></path><path d="M0 428L10 437.8C20 447.7 40 467.3 60 466.3C80 465.3 100 443.7 120 445.5C140 447.3 160 472.7 180 480.8C200 489 220 480 240 479C260 478 280 485 300 482.3C320 479.7 340 467.3 360 457.5C380 447.7 400 440.3 420 442C440 443.7 460 454.3 480 463.3C500 472.3 520 479.7 540 485.2C560 490.7 580 494.3 600 487.2C620 480 640 462 660 456.5C680 451 700 458 720 460.7C740 463.3 760 461.7 780 469C800 476.3 820 492.7 840 495.3C860 498 880 487 900 481.5C920 476 940 476 950 476L960 476L960 409L950 413.5C940 418 920 427 900 437C880 447 860 458 840 450C820 442 800 415 780 406.8C760 398.7 740 409.3 720 411.2C700 413 680 406 660 409.7C640 413.3 620 427.7 600 435.7C580 443.7 560 445.3 540 444.3C520 443.3 500 439.7 480 425.3C460 411 440 386 420 382.5C400 379 380 397 360 412.3C340 427.7 320 440.3 300 441.2C280 442 260 431 240 434.5C220 438 200 456 180 452.5C160 449 140 424 120 417.7C100 411.3 80 423.7 60 422.7C40 421.7 20 407.3 10 400.2L0 393Z" fill="#ed3254"></path><path d="M0 541L10 541C20 541 40 541 60 541C80 541 100 541 120 541C140 541 160 541 180 541C200 541 220 541 240 541C260 541 280 541 300 541C320 541 340 541 360 541C380 541 400 541 420 541C440 541 460 541 480 541C500 541 520 541 540 541C560 541 580 541 600 541C620 541 640 541 660 541C680 541 700 541 720 541C740 541 760 541 780 541C800 541 820 541 840 541C860 541 880 541 900 541C920 541 940 541 950 541L960 541L960 474L950 474C940 474 920 474 900 479.5C880 485 860 496 840 493.3C820 490.7 800 474.3 780 467C760 459.7 740 461.3 720 458.7C700 456 680 449 660 454.5C640 460 620 478 600 485.2C580 492.3 560 488.7 540 483.2C520 477.7 500 470.3 480 461.3C460 452.3 440 441.7 420 440C400 438.3 380 445.7 360 455.5C340 465.3 320 477.7 300 480.3C280 483 260 476 240 477C220 478 200 487 180 478.8C160 470.7 140 445.3 120 443.5C100 441.7 80 463.3 60 464.3C40 465.3 20 445.7 10 435.8L0 426Z" fill="#c02440"></path></svg>